<svg id="Vrstva_1" data-name="Vrstva 1" xmlns="http://www.w3.org/2000/svg" viewBox="0 0 889 223.5"><defs><style>.cls-1,.cls-2{fill:#fff;}.cls-1{fill-rule:evenodd;}.cls-3{font-size:41px;fill:#fcfcfc;font-family:Montserrat-ExtraBold, Montserrat;font-weight:800;}.cls-4{letter-spacing:0.01em;}.cls-5{letter-spacing:-0.02em;}.cls-6{letter-spacing:-0.01em;}.cls-7{letter-spacing:-0.02em;}.cls-8{letter-spacing:0em;}.cls-9{letter-spacing:-0.01em;}</style></defs><g id="Layer_2" data-name="Layer 2"><g id="Vrstva_1-2" data-name="Vrstva 1"><path class="cls-1" d="M61.74,76.73a3,3,0,0,1,1.33.71,11.12,11.12,0,0,1,1.05,1c.39.67,2.75,1.29,1.9,2.19-.33.35-.18.29-.26.44A18.18,18.18,0,0,1,64.2,83.2c-.34.44-.55.94-.93.6s-.47-.16-.48-.65.58-.31.65-.71c.1-.58,0-.69-.4-.68,0-1.09.38-.29.36-.79,0-1.68-.19-.52-.83-1s-.12-.78-.65-1.3c-.6.19-.34-.53-.41-.63-.75-1-1.56.07-1-1,.18-.35.91-.38,1.25-.26M60,74.29c.25.33,2,1.17,2.25,1.9,0,.15.15.2-.18,0h0a2.09,2.09,0,0,0-1.19-.34c-1.33,0-.89-.13-2,.5-.79.47-.57,1.1-1.55,1.09,0,0-.82-.92-.57-1.13a11.44,11.44,0,0,0,2-1.67c.35-.46.79-1,1.22-.4ZM74.1,65.91c-.71-.2.78-.57.79-.67h0c.2,0-.06.85-.12,1S74.22,66,74.1,65.91Zm-1.27-3.14c0-.28.17-.14.22,0s.35.23.37.27.27.2.33.26c.71.63-.12.83-.28,1-.43.45-.42.24-.64.22-.62-.06-.36,0-.35-.52A7.5,7.5,0,0,0,72.83,62.77Zm-1.68-1.33a1,1,0,0,1,.6.37c.12.16.07.07.24.24s-.07.41-.29.58-.8.79-1,.66a11.69,11.69,0,0,1,0-1.45C70.94,61.29,70.78,61.46,71.15,61.44Zm2.88-.5c.23-.46.33-.27.57-.14a1,1,0,0,0,.76-.16c.66-.59.4.41.55.73.45,1-.06.78-.25,1-.48.57-.72,0-1-.23-1.24-.78-1-.34-.66-1.2Zm-1.75-.59c.38-.29.82-.86,1.31-.92,0-.16.16-.11.19,0,.14.54-.09.56-.37.94-.57.77-.32.48-.74.42C72.58,60.77,72.07,60.5,72.28,60.35Zm15-15.09a22.74,22.74,0,0,1,.14-3.69c.21-1.06.54.07.76-.14.48-.44.19,0,.39.25a3.82,3.82,0,0,1,.51,1.17c.06.11.5,1.16.5,1.2a7.71,7.71,0,0,0,.4,1.14,5.28,5.28,0,0,0,.45,1.07A4.14,4.14,0,0,0,91,47.51c0,.36.61,1.26.64,1.81a5.76,5.76,0,0,0,.74,2,6.93,6.93,0,0,0,.33,1.16c0,.88.45,1,.45,1.16,0,1.29,0,.12-.49.13-.25,0-.58-.87-.59-.91a9.84,9.84,0,0,0-1.23-2.28c-.37-.46-.63-1.67-1-1.69,0-.15-1.43-1.72-1.25-2.48.12-.5-.36-.71-.76-.38s-.36-.22-.42-.45-.12-.19-.12-.32Zm-1.69-3.82c.07-.32-.26-1.71,1-1,.09.06.54.42.55.43a16.91,16.91,0,0,0-.16,1.9c0,.27-.19,2.42-.2,2.41-.57-.23-.37-1.6-.58-1.83a3.65,3.65,0,0,1-.52-1.57c-.07,0-.12-.33-.12-.34ZM83.9,42.66c1.14.18.42-.76.89-.44.21.15.34-.07.42-.2s.27,1.11.53,1.49c0,0,.68,2.39.23,1.57s-1.1-.86-1.54-1.56C84.38,43.45,83.5,42.6,83.9,42.66Zm0,1.74c-.39-.32-.93-.78-.78-1.23.24-.72,1.31.9,1.43,1s.71,1.09,1,1.08.63.45.76.55c.31.23-.88.55-.89.55C84.69,46.39,84.64,45,83.9,44.4Zm4.68,5c-1.23-1.34-.55-2.19-.21-1.42h0a2.29,2.29,0,0,1,.38.54,14.92,14.92,0,0,0,1.35,2.32c.2.55,1.27,1.65,1.16,1.94-.31.77-1.06-.9-1.13-1.14a18.1,18.1,0,0,0-1.55-2.23Zm-8.85-6a.85.85,0,0,0,.14-.19c0-.15-.18,4-.63,4.11-1.29.2-.4-2-.23-2.58a13.79,13.79,0,0,1,.72-1.4Zm-1.32-4.15c.3,0,.27.45.83.38.7.23.21.09.74.46.24.17.6-.31.59.73,0,.18-.6.46-.59.14a2.37,2.37,0,0,0-.28-.9c-.29-.13-.21.24-.2.53a5.54,5.54,0,0,1,0,1.41c-.22.15-.44.07-.43.16-.13,1.1.63.23.14,1.11a5.69,5.69,0,0,0-.82,2.1c-.18.64-.48,2.21.55,2.18.65,0,.52-.49.77-.87s.41-2.58.73-2.72c0,0,.79-.13.79.07,0,1,.82,1.44,1,2l.12.11c.09.5,1.32,2.09.85,2.27-.91.35-.46,1.68.11,1.24s1.61.33,1.11.86-1.32-.6-2-.18a11.54,11.54,0,0,1-2.3,1.16s-1.62,1-1.91,1.11a4.38,4.38,0,0,1-1.09.47c-.44.08-.6.85-1,1a13.55,13.55,0,0,0-1.76,1.63,7.62,7.62,0,0,0-1.17,1.12c0,.09-.2.08-.29.08-.22.46-2,1.37-2,1.64,0,.57-.39.89-.41.27a2.41,2.41,0,0,0,0-.38h0S68.93,56,69,56l-.13-.12c-.34-.36-1-.7-1.39-1.06a13.64,13.64,0,0,1-1.66-.47c-.28-.4-.35-.32-.58-.89-.13-.32-1.14-.63-1.46-.62a6.42,6.42,0,0,1-3-.46,8.16,8.16,0,0,1-1.06-.44,2.83,2.83,0,0,0-1.43-.32A6.21,6.21,0,0,1,57,50.3h0c-.45-1.39-1.36-.92-1.42-1.6s-.55,0-.52-2c0-.5-.14-.85.25-1.38a16,16,0,0,1,.36-2.18c.11-.29.31-2.17.57-3a10.15,10.15,0,0,0,.11-2.2c.27-.18.52-1.55.76-1.94,1.61-2.67,1.47.12,3,.69.63.23.67.67,2,.92,1.69.32,5.45,2.27,6.39,2.38a16.1,16.1,0,0,0,4.16.12c.34,0,5.06-.78,5.75-.83Zm-19-12.07a3.4,3.4,0,0,1-1.66-1.6c-.1-.09,0-.33,0-.58a3.07,3.07,0,0,0,.17-.31c.07-.13.4.16.83-.09a2.14,2.14,0,0,0,0,.72c.08.13.13.95.2,1.23l.19.19c.25.18.15.09.23.31a.92.92,0,0,1,0,.16Zm61,57.58c.26-.42.64-.94.86-1.35a17.86,17.86,0,0,1,2.61-3.94A10.45,10.45,0,0,1,125.17,81c-.39.39-1.27,1.23-1.26,1.73.58-.41.85-1.09,1.55-1.49a7,7,0,0,1,1.15,1.65,12.3,12.3,0,0,1-3.76,1.46c.28-.39.47-.25.4-.71-1.28.71.37.3-2.64,1.75Zm2.78,5.45c.9-.56,4.21-1.46,5.58-2a5.9,5.9,0,0,1,.46,2.35,14.68,14.68,0,0,1-3.08.65,21.62,21.62,0,0,1-3,.4,1.39,1.39,0,0,1,0-1.37Zm1.3,1.58a34.9,34.9,0,0,1,4.66-.8,6.51,6.51,0,0,1,.07,1.25,1.36,1.36,0,0,1-.44,1.11c-.71-.43-3.38-.85-4.36-1.53Zm-2.07-5.11a1.89,1.89,0,0,0,.75,0c-.92-.15-.84.46-1.87-.64l.39-.32h0c-.57-.1-.4.35-.74,0,0-.12-.12,0,.23-.22l.3-.13h.07c.43.28.06.16.31.19a4,4,0,0,1,2.34-1.37c.93-.29,1.8-.81,2.73-1.08l1.16,2.1c-.44.4-3.22.89-4.17,1.2l-.32.11c-.25.15-.12.11-.17.18,1-.07,3.77-1,4.72-1.1a8,8,0,0,1,.73,2.18,30.45,30.45,0,0,1-5.48,2,11.87,11.87,0,0,1-1-1.63c-.49-1,0-.89-.05-1.44Zm0,3.25c-.22-.41-.26-.43.11-.64.22.19.14.1.28.39Zm-1.15-1.85c.33-.2.33-.25.62-.21,0,.09.15.13-.28.5a1.2,1.2,0,0,1-.4-.26Zm2,3.76A1.69,1.69,0,0,1,124,92l4.89,1.69a8.09,8.09,0,0,1-.39,1.82c-.1.32-.38.51-.32.51.28,0-.32,1.31-.32,1.31-.2.52-.13.76-.62,1.21-1.06-.56-2.71-.88-3.62-1.54l-.34.16c.65.7,3.28,1,4,1.72-.32.46-1.1,1.83-1.66,2-.42-.28-.85-.64-1.28-.91-1.38-.84-2.8-1.23-3.8-2.75.34-.32.27-.17.36-.55a3.37,3.37,0,0,0,1.44-1.43c.34-.7-.27-.79.53-1.79.43.1.32.3.83.15l-.71-.73c.1-.41,0-.53.25-1Zm-3.35-6.93-.38.21c-.36-.19-.33-.39,0-.66Zm-11-6.5V78.2a8.41,8.41,0,0,1-.32-1.57l.12-.06a2.93,2.93,0,0,1,.17,1.87Zm5.32-2.69c.31,0,.66.08,1,.1a6,6,0,0,1,1,.07c.4.91.08,2,.28,2.63a.68.68,0,0,0,.07-.28v-.88a6,6,0,0,1,.12-1.2,3.31,3.31,0,0,1,1.64.27,6.31,6.31,0,0,1-1.15,2.46c-.26.39-.17.09-.13.43.81-.17.84-2,1.92-2.82.55.52,1.23.31,1.92,1.16l-.55.76c-.29.38-.45.4-.54.78.49,0,1.1-1.13,1.37-1.47a13.37,13.37,0,0,1,2.12,1.47,9.12,9.12,0,0,1-1.55,2.55,18.72,18.72,0,0,1-1.64,2.68c-1.29-.86-1.86-.17-2.57-1.49a14.18,14.18,0,0,1,1-1.45,10,10,0,0,0,1-1.5c-.25,0,.17-.23-.27,0-.13.08-.53.92-.88,1.4a3.79,3.79,0,0,1-1.47,1.42,2.27,2.27,0,0,1-.2-1.71,7.52,7.52,0,0,1,.6-1.6l-.74.09a1.94,1.94,0,0,0,0-1.12l-.07.5c0,1.1,0,3-1.33,3.78-.48-.58-.35-1.09-.61-1.3-.2.43,0,.36,0,.8l-1.21.44a16,16,0,0,1-.38-3l-.25-2.37c-.08-.5,0-.62-.32-.73a7.66,7.66,0,0,0,.15,1.51l.47,4.74a2.48,2.48,0,0,1-1.45.15l-.23-1.17c-.14.31,0,.46-.11.81a14,14,0,0,1-2-2.79,5,5,0,0,0,.25-3.46v-.1a8.29,8.29,0,0,1,1.29-.38c.45.38.11,1.61.5,2.42a.82.82,0,0,0,.13-.57,2.47,2.47,0,0,0-.05-.6q-.09-.63-.12-1.26a2.7,2.7,0,0,1,1.06-.08l.29.63c.22-.25.2-.16.1-.52a1.35,1.35,0,0,1,.79-.15c.39.07.29.23.58.4Zm7.16,13.4c.24-.26.41,0,.42.23-.21.06-.38.05-.45-.2Zm.6,1.53c.22-.37.43-.12.56.09-.27.26-.56.32-.56-.06Zm-3.41-5.9c.52.13.4.46-.18.49-.08-.24-.09-.24.15-.46Zm4.26,7.77-.38.23c-.23-.32-.21-.45.15-.67Zm-5-8c-.18-.29-.18-.3-.07-.53.23-.08.33.11.39.3a.53.53,0,0,1-.36.21Zm2.26,6.87c.53-.27.75-.27,1.13,0s.51.15.92.3c-.25.15-.4,0-.61.06a1.65,1.65,0,0,0-.64.2,4.05,4.05,0,0,1-.84-.58Zm-4.22-8.31c-.19-.43-.14-.38.07-.74a3.1,3.1,0,0,1,.41-.61c.19.72.31,1-.52,1.33Zm2,3.4c.32,0,.45.2.51-.16-.42-.07-.63.29-1.37.34-.3-.69,0-.29-.08-.86-.06-.28-.14-.57-.2-.83.91-.19,1.61.64,2.27,1.54l-.74,1.1-.68-.68c.18-.27.19-.2.24-.47Zm1.66,2.89a1.64,1.64,0,0,1,1.21-.5,2.48,2.48,0,0,1,.44,1.71,1.65,1.65,0,0,1-1.51-.13,3,3,0,0,1-.19-1.1Zm2.73,4.28c-.45.14-.3.2-.55-.11.23-.47.33-.26.36-.28ZM116.48,84l-.36.23c-.07-.18-.22-.31,0-.44S116.37,83.8,116.48,84Zm-.6.48c.85.92.55-.38.67,1.76l-.25-.1c-.46-.21-.29,0-.63-.14.07-.45.25-.38.25-.88l-.59.51a.9.9,0,0,1,.5-1.17l0,0Zm3.9,7.24c.24,0,.1-.07.35.11a1.07,1.07,0,0,1,.26.26c-.62.25-1,0-.61-.41ZM119.4,93l.06-.36a2.16,2.16,0,0,1,1.61-.22C121.26,93.83,119.9,93.64,119.4,93Zm1.51,1.16c.33-.15.37-.16.61.11-.24.48-.32.27-.36.28Zm.87,1c0,.08,0,.23-.35.3l-.22-.29c.51-.35.31-.39.57,0Zm-3.27-4.47c.39-.18.44-.21.6.19-.12.15.07,0-.12.13s-.07,0-.21.06Zm-4.21-7.84.19.37c-.09.08,0,.07-.18.13a.28.28,0,0,1-.36-.24c0-.11-.09-.11.35-.3Zm4.75,8.83c.16.56-.13.9-.65.68,0-.53.09-.68.65-.72Zm-3.11-4.89.22.16c0,.17.08.08-.09.25s-.84,0-.13-.45Zm4.9,8.88a.34.34,0,0,1-.07.47.26.26,0,0,1-.15.07c-.12-.08-.39-.28-.07-.49s.2-.1.29-.09Zm-7-11.74c-.31.15-.57.09-.46-.26s.4,0,.51.22Zm8,15.19c.81,0,3.24,1.66,3.63,2.12-.37.36-.68,1-1.3,1.3Zm-9-15.6c0,.36.09.26-.19.49-.59-.31-.4-.82.17-.53Zm-.36,2a1.8,1.8,0,0,1-.28-.74.88.88,0,0,1,1,0,1.16,1.16,0,0,1,0,.69,4.06,4.06,0,0,1-.69.08Zm6.16,10.34a.91.91,0,0,1,.7.18l-.32.3Zm1.66,2c1.42.76,2,2.56,2.59,3.32a5.1,5.1,0,0,1,1.13,1.59l-2,1.45c-.88-1-1.45-4.09-2.2-4.87a38.27,38.27,0,0,0,1.82,5l-2,1.13a44.38,44.38,0,0,1-3.74-5.92c1.27-.42.79.56,2.54-.77.13-.11.27-.21.4-.3.5-.36.37-.19.47-.19l.52.82c0-.28-.09-.69-.09-1ZM107.5,77.09l.67-.36a4.68,4.68,0,0,1,.38,1.85Zm9.86,18.6a1.3,1.3,0,0,1,.77-.3l.43.94A1.45,1.45,0,0,1,117.36,95.69Zm1.5,1.72c.21.37.21.39-.1.65l-.31-.23C118.52,97.55,118.53,97.5,118.86,97.41Zm-1.42.67.08-.25c.35-.09.22-.12.45,0a.6.6,0,0,1-.24.39ZM115.85,98a2,2,0,0,1-.66-1.43,10.11,10.11,0,0,1,1.5-.49,1.39,1.39,0,0,1,1.31.39c.33.23.67.29-.52,1A5.77,5.77,0,0,1,115.85,98Zm.38-2.5c-.43.35-.59.56-1,0,.22-.2.13-.29.77-.12A1,1,0,0,1,116.23,95.5Zm1.23,3.09c.15.44,0,.34,0,.41s-.27.19-.18-.18v-.07C117.41,98.54,117.26,98.78,117.46,98.59Zm-1.11-.07.25.32-.36.24-.25-.31Zm.47,7.79c-.28-.62-1.92-5.89-1.91-6.25.8-.5.75-.34,1.29.46a17.1,17.1,0,0,1,1,1.77c.63,1.24,1.41,2.21,2.1,3.39A9.61,9.61,0,0,1,116.82,106.31Zm-2-4.9c.21.89,1.29,3.56,1.65,4.88a3.37,3.37,0,0,1-1.9.32l-.21-.54c-.17.23-.12.35-.28.61a6.13,6.13,0,0,1-2.37-.23c0-.47.22-.21,0-.77a1.66,1.66,0,0,0-.5.75,6,6,0,0,1-2.24-.58c-.08-.35.53-3.92.6-4.6s-.06-1,.39-1.46a29.51,29.51,0,0,1,3.26-.12,14.86,14.86,0,0,1-.76,2.68c-.12.29-.12.13,0,.47.51-.62.7-2.3,1.19-3l.79.36a3.2,3.2,0,0,1,0,1.07,28,28,0,0,0-.21,3.17,4.53,4.53,0,0,0,0,1.47,18,18,0,0,0,.27-3.28,5.23,5.23,0,0,0,0-.56,2.67,2.67,0,0,1,0-.4ZM112,95.93l.45.4c-.1.5,0,1.13-.63,1.07-.31,0-.12-.05-.33-.27h-.3c-.36-.47-.35-.32,0-.7C111.37,96.24,111.36,96,112,95.93Zm-2.1.36c-.17-.48-.08-.28.25-.61s.16-.3.38-.42l.63.25.07.51H111a2,2,0,0,0-1.12.27Zm-8.1-15.08.39-.42.82,1.62a.64.64,0,0,1-.18-.06l-.14-.12A3.62,3.62,0,0,1,101.8,81.21Zm9,15c0,.26,0,.11-.07.31a1.94,1.94,0,0,1-.21.29h-.26c-.06-.19-.12-.27,0-.44.25-.45.48-.19.49-.19Zm-9.11-14.64c.52.56,1.19,1,1.78,1.67.8,1,.44,1.48.09,2.2-.43-.06-.38-.2-.79-.23l.74.83-.88.63c-.49-.27-2.59-.32-3.46-.88a8.12,8.12,0,0,1,1.3-2.36,6.39,6.39,0,0,0,1.38,1.16c0-.11.06,0,0-.19a.78.78,0,0,0-.16-.2,5,5,0,0,1-1.13-1.2,2.37,2.37,0,0,1,.47-.71,5.55,5.55,0,0,1,.61-.75Zm1.94,6.7c0-.61-.09-.66.27-1.14.3.09.18.16.51.13.58-.06.92,0,1.51.78-.48.49-.58.47-1.72.38Zm2.24.54a3.32,3.32,0,0,1-.12,1.29c-1.22.68-.78,1.06-1.55,1.5a2.07,2.07,0,0,1-.48-1.87c.11-.32,0-.45-.13-.93a1,1,0,0,1,.6-.12c.38,0,.29.11.54.13Zm2.9,10.3a1,1,0,0,1,.63-.8c.26.13.45.44.2.65s-.7.1-.88.12Zm-8-10.75a3.83,3.83,0,0,1,2.48-1.06l-.19,1a6.4,6.4,0,0,1-2.39,0Zm6.77,9c1.06.58-.62.69-1.15,1.13a4.9,4.9,0,0,1-2,1.32c-.65.16-1.46.25-2.11.34s-1.72.16-1.71-.86l1.17-1c1.42-1.09,2.28-2.23,3.84-2.75.3.52.43,1.28.69,1.35.59,0,.75-.45,1.08.31l-.49.64c.32,0,.14-.2.58-.46Zm1.16.44c.27.63,0,1.12-.8,1.38l-1.55.25h-.13l.36-.57c.21-.19.46-.35.69-.52.61-.5.65-.59,1.33-.52ZM98.49,88c.26-.57,0-1.39.74-1.86.25.06.4.12.66.18a7.59,7.59,0,0,1,2,.48,9.52,9.52,0,0,1-1.78.73C99.43,87.73,99,88.2,98.49,88Zm10.94,12.07a20.49,20.49,0,0,1-.32,2.81c-.15,1-.29,2-.5,2.8a3.45,3.45,0,0,1-2.25-.86l1-2.9c.25-.74.77-2.53,2.07-1.84Zm-11.32-9c-.07-.54.14-1.36.09-1.71a5.86,5.86,0,0,1,2.47-.81,7.15,7.15,0,0,1,2.21.2c.15.72-.27.8.25,2.2v.11c-1.4,1.19-4.37.48-5,.07Zm9.65,8.93c.09.74-.91,2.72-1.26,3.52a2.82,2.82,0,0,1-.61,1.16,7.71,7.71,0,0,1-1.64-1.37c.75-.76,2.54-2.78,3.51-3.25Zm-8.37-7.69c-.76.23-1.17.39-1.34-.52.35-.43.62-.27,1.64-.13a3.19,3.19,0,0,1,1.56.47c-1.39.68-1.32.67-1.86.24Zm2.78,9.24a3.16,3.16,0,0,1,1.23-.61c1.26-.41.36-.78,3.13-.83.28,0,.32,0,.48.2a16.39,16.39,0,0,0-1.5,1.34,8.08,8.08,0,0,1-1.51,1.41,3.19,3.19,0,0,1-1.83-1.45Zm1.17-5.13a29.36,29.36,0,0,1-3,2.56c-.45-.33-.65-1.21-.88-1.74.88-.54,2-.29,2.86-.5a3.39,3.39,0,0,0,.53-.2c.45-.16.29-.09.49-.06ZM29.78,89c-.26-.78.64-1.53,1.57-1.8A18,18,0,0,0,34,86.12l.61,1A39.89,39.89,0,0,1,29.78,89Zm4-3.09A11.74,11.74,0,0,1,31,87.09a1.71,1.71,0,0,1,.45-.9c.18-.24,1.25-1.54,1.54-1.38A5.8,5.8,0,0,1,33.78,85.91Zm-3-2.2a2.07,2.07,0,0,1,.39-.75l.76.64C31.6,83.74,31.06,83.89,30.78,83.71Zm3.63,10.08a3.19,3.19,0,0,1,.13-1.47,2.21,2.21,0,0,1,1.5-.51,5.71,5.71,0,0,1,.15,1.65A5.15,5.15,0,0,1,34.41,93.79ZM26.5,84.51l.87-1.35c.16-.41,0-.19.45-.48,0-.34-.14-.05.12-.37.1-.1.2-.21.29-.32.24-.39.14-.42.64-.71A10.09,10.09,0,0,1,31,82.69c-.24,1-.52,1.46-1.79,1.58C28.32,84.36,27.3,84.51,26.5,84.51Zm6,.13c-.52.51-1.05,1.36-1.58,2a2.77,2.77,0,0,1-2.36,1.18l-.18-.38.3-.31h-.06c-.23.07,0,0-.13,0h-.24l-1.15-.31a2.14,2.14,0,0,1-1.39-1.08l3.7-.84c.23.68-.21.56-.19,1.1.75-.64.54-1.18,1.34-1.22a6.72,6.72,0,0,1,1.9-.14Zm1.77,10.41.08-.85a6.61,6.61,0,0,1,1.86-.42,8,8,0,0,1-.05,1.83,5.23,5.23,0,0,1-1.93-.56Zm-7.7-14.82a5.32,5.32,0,0,1,1.9.84c-.16.77-.32.52-.62,1.09a3.42,3.42,0,0,1-.26.59c-.1.14-.36.32-.51.49C26.43,84,26.2,85,25,84.78c-.54-1.38.53-2.41.93-3.45s.07-.52.6-1.1Zm8,17.16c.52-.19.76-.47,1.32-.46a1.77,1.77,0,0,1-.2,1.08,1.48,1.48,0,0,1-1.19-.62Zm1-1.49a3.14,3.14,0,0,1-1.55.78,4.23,4.23,0,0,1-.12-1.12,1.37,1.37,0,0,1,1.55.34ZM26,80.11a6.51,6.51,0,0,1-1.13,2.48,10.13,10.13,0,0,1-.16-2.8A1.54,1.54,0,0,1,26,80.11ZM29.78,88l-.61.74C28.42,87.83,29.68,87.94,29.78,88Zm4.4,9.63,1.27.8c-.18.65-.67,1.67-.78,2.12l-.53.26a3.2,3.2,0,0,0-1.64-.54c.28.33.64.37,1.14.54.34.12.11,0,.46.06l.3.38-.76,1.08a6.25,6.25,0,0,1-1-1.45,5.87,5.87,0,0,0-.36-.81,4.08,4.08,0,0,1-.5-.6c1.12-.91,1.71-.6,2.4-1.88Zm-3.11-3.44A1.29,1.29,0,0,1,31.15,93a4,4,0,0,1,.89-.26h.18L32,94.27a1.09,1.09,0,0,1-.93-.12ZM32.66,96c.19.4.2.45-.08.73l-.29-.38Zm-5.25-8.63.31-.14C28.38,87.68,27.41,88.29,27.41,87.37Zm4.33,7.53a1.53,1.53,0,0,1-.53.79,3.55,3.55,0,0,1,.08-.47v-.56C31.58,94.61,31.5,94.52,31.74,94.9Zm-1.59-1.7c.26,0,.2,0,.42.13,0,.16,0,.46-.33.38S30.09,93.35,30.15,93.2Zm-3.09-5.41-.44.27-.21-.39C26.76,87.39,26.79,87.4,27.06,87.79Zm5.7,9.36a2.67,2.67,0,0,1-1.4.57,1.44,1.44,0,0,1,.52-.8C32.34,96.53,32.47,96.72,32.76,97.15ZM25.62,86.88l.39-.21c.18.29.15.24.14.42S25.8,87.12,25.62,86.88Zm5.31,8.31-.41.29L30.21,95C30.67,94.77,30.67,94.8,30.93,95.19Zm-1.84-1.25c.22-.06.28-.2.39.17.07.22,0,.27-.19.44l-.2-.47Zm-3.88-4.63-.35-.78c-.23.26-.17.36-.44.62-.33-.13-.49-.05-.79-.4a.9.9,0,0,1,.13-.28l.1-.31-.47.08a2.59,2.59,0,0,1,.11-1l.55-.13.06.26h.49c.4,1,0,.8.26,1,.26-.65-.33.09.25-.87a6,6,0,0,1,1.63,1Zm-5.83-3.73a5.27,5.27,0,0,1-1.26.62,20.12,20.12,0,0,1-.56-2.29c-.14-.39-.08-.16-.17-.22-.2,1.23.68,2.22.25,2.74a28.9,28.9,0,0,1-3-5.23l1.76-.82c.45.83.3,1.54.75,2.36.26-.46-.21-1.4-.33-2.29a17,17,0,0,1,2.06-.77c.18.56,0,.81.29,1.43.33-.39-.09-.44.15-1.54,1.17-.25,1-.23,1.36.21.53-.68.68-.59,1.38-.12.66-.6,1.84-.16,2.37,0a23.58,23.58,0,0,1,.15,2.66c.05,1.18.09,1-.39,1.84-.13.21-.19.41-.31.6l-.93.13c-.2-.84-.35-2.59-.56-3.72-.28-1.47-.29-.63,0-1.23l-.27-.24V80c0,.42-.22-.14,0,.94.26,1.29.29,2.42.67,4a4,4,0,0,1-1.3.4c-.6-1.18-.24-2.38-.63-3.49a9.5,9.5,0,0,0,.27,3.44l-1.36.27a15.82,15.82,0,0,1-.29-3.14c0-.48-.15-.64,0-1l-.3-.2.12.4h-.12c-.28.24.13-.29-.08.07a.67.67,0,0,0,0,.2C19.09,82.71,19.46,84.89,19.38,85.58Zm5.06,4.07-.7.34c-.19-.21-.13-.08-.18-.35C23.81,89.22,24.09,89.38,24.44,89.65Zm-2.82-3.41c.23,0,.07,0,.32.15l-.17.43-.35-.35Zm-1.65,3a4.53,4.53,0,0,1-.17-1.51l1.14-.65a3,3,0,0,1,.42,1.62Zm-.67-2.49.23.38-.23.34c-.3-.11-.3-.18-.3-.47Zm.19,1a4.23,4.23,0,0,1,.14,1c.07.48.15.58-.25.91a12.9,12.9,0,0,1-.67-1.13c-.13-.28-.08-.26.18-.43a2.73,2.73,0,0,1,.6-.28Zm-1.16,1.6a1.68,1.68,0,0,0,.2,1c-.35.16-.24.15-.53,0-.56-.26-.86-.64-.43-1.18l.51.56c0-.08.07,0,.07-.24s0-.09-.06-.25c-.29-.69-.22-.36,0-.59l.32.54.4-.06c.25.41.35.54.18.86-.31-.17-.27-.39-.66-.57Zm5.26,9.71c.3.41.76,1,.66,1.43a.9.9,0,0,1-.78-1,.77.77,0,0,1,.12-.36ZM14.31,81.29c.57.93,1,1.79,1.51,2.74s1,1.7,1.54,2.6l-1,.69L12.5,82.69Zm12.22,21.79L29,106.47a4,4,0,0,1-1.77.77,6.19,6.19,0,0,1-.77-1A3.52,3.52,0,0,1,26.53,103.08Zm-1.05,1.75-1-1.73c-.31-.3,0-.16-.33-.07a9.87,9.87,0,0,0,1.36,2.09,7.62,7.62,0,0,0,.11,1.06,4.64,4.64,0,0,0,.82,1.39l-.93.45a1.2,1.2,0,0,1-1.14-.21,2.15,2.15,0,0,0-.41-1.43,1.75,1.75,0,0,0,.41,1.45l-.32.49-1.31.17-.28-.51c-.53.83-.89.5-1.92.5-.4,0-.33-.09-.65-.18-.85-.24-1.66.06-2.67-.61-.19-1,.45-3.71.53-5a2,2,0,0,1,.62-1.59,5.56,5.56,0,0,0,1.38,1.13c.45.12,1.17-.09,1.69,0a3.68,3.68,0,0,1-.36,1.66c-.11.34-.15.49-.28.81-.25.61-.29.52-.16.9.82-.8.53-2.77,1.4-3.14.83.25.53,1.94.47,2.54-.16,1.56.08,1.24-.09,2a1.26,1.26,0,0,0,0,.72,2,2,0,0,0,.15-1c0-.36,0-.19.09-.51l.15-2.79c.2.11,0-.42.34.63l.72,2.1a11.07,11.07,0,0,0-.84-3.49l.67-.3.33.28.16-.47c.21-.07,1.07,0,1.65-.1l.3.4A4.77,4.77,0,0,0,25.48,104.83ZM16.86,88.66l.36-.13c.05.06.19,0,.09.38C17,88.94,17.08,89,16.86,88.66Zm-.58.32c.36.29.33.46-.13.68-.23-.32-.22-.59.13-.66Zm4.16,8.94c.65-.33.55-.19.87.43a.61.61,0,0,1-.82-.28A.88.88,0,0,1,20.44,97.92ZM16.65,92.6a4.09,4.09,0,0,1,.75,1c-.07.67-1,.86-1.64,1.23a4.09,4.09,0,0,1,0-2.14c.08-.37.14-.32.52-.42l-.15-.38A1.24,1.24,0,0,1,17.4,92v.88C17.12,92.8,16.93,92.6,16.65,92.6Zm-4-6c-.38.77,1.58,1.87,2,2.51l-.28.77a2.27,2.27,0,0,0-1.1,0c.28.48.44.42.71,1l-.55.28.45.32c-.37.92-.13.2-.26,1.65V94c0,.31.1.61.17.92l-.8.19c.53.57.48,0,1,.54-1.11.77-1.65.14-2.51.67.41.26.59,0,1.08.12A30.06,30.06,0,0,1,8.1,98.78a6.38,6.38,0,0,1-.6-1.9c.74-.24,2.82-.08,3.18-.55-.47-.27-1.83.28-3.31.11a7.24,7.24,0,0,1-.12-1.61,2,2,0,0,1,0-.35l.07-.22a9.46,9.46,0,0,0,2.69.49l2.72.33a5.08,5.08,0,0,0-2-.41L8,94.21c-.55,0-.43.12-.8,0,.1-.38.08-2.12.16-2.7A4,4,0,0,1,9,91.37c.42,0,.32,0,.41-.28-.22-.11,0-.07-.2-.08a3.62,3.62,0,0,1-1.67,0c-.2-1.26.49-1.69.68-2.37.53-1.9.9-1.54,1.21-2.26a3,3,0,0,1,1-1.41,4,4,0,0,0,1.45,1.1c-.43-.58-.91-.73-1.31-1.48A6.47,6.47,0,0,1,12,83.16c.89-.48,1.13,1,2.91,2.69s1.35,1.79.76,2.41a4.71,4.71,0,0,1-.79.69c-.36-.41-1.34-1.23-2.24-2.35Zm7,11.13A1.73,1.73,0,0,1,19.2,97c.5-.21.87.11,1.14.62l-.4.25Zm-.83,1.85L20,98.47a6.72,6.72,0,0,0,1.74.69l.06,1.25A2.47,2.47,0,0,1,18.82,99.58ZM15.41,90.9c0-.12-.05,0,.06-.16a.74.74,0,0,1,.19-.16l.27.38C15.57,91.09,15.68,91.12,15.41,90.9Zm3.25,6.63.41.28a1.06,1.06,0,0,1,.36.4l-.64.44.2.07h.29l-.81.75c-.16-.47,0-.43,0-.86-.23.14-.26.2-.45.2.11-.39.27-.28.51-.61S18.54,97.89,18.66,97.53Zm-1.4-2.72.23.76a.88.88,0,0,1-.9-.08A2.55,2.55,0,0,1,17.26,94.81Zm-2.14-3.36c.16.36.12.1.09.45-.45.16-.09.26-.39-.11C15,91.47,14.81,91.67,15.12,91.45Zm3,6.08a1.17,1.17,0,0,1-.49,1.14l-.19-.53ZM14.8,93.34c.17-.16.2-.11.42,0v.35C15,93.57,14.86,93.59,14.8,93.34Zm0,1.32-.33-.31c.25-.15.27-.28.45-.06s.08.25-.09.37Zm1.59,4-.18-.43c.41-.23.79.09.21.42Zm-.76-1.79c0,.14,0,.44-.23.45s-.24-.31-.24-.49a.85.85,0,0,1,.5,0Zm1.89,4.26c.35.49.11,1.25,0,1.66l-.64,4a1,1,0,0,1-.21.78,7.89,7.89,0,0,1-1.86-.81V106l-.46.33-1.12-1.23h-.09l-.52.15a10.71,10.71,0,0,1-1.48-1.53l5.48-3.47c.59.94,0,1.15-1.08,2.23L14,104a1,1,0,0,0-.26.59c.49-.37,2.13-2.21,2.5-2.24,0,.26-.14.37-.29.66s-.21.45-.32.68a2.4,2.4,0,0,0-.41,1.47,11.13,11.13,0,0,0,1.44-3.25c.2-.52.27-.83.89-.79Zm-3.17-3.88c.42.76.29,1,1,1.63a4.5,4.5,0,0,1,1.1,1.24c-1.17.74-4.37,3-5.47,3.27-.31,0-.61-.31-.81-.54-1.63-1.89-.33-1.88.61-2.67a32.74,32.74,0,0,1,3.6-2.94Zm28.17-7.41.16-.06c1.44-.48,1.37-.42.43.39l-.43.38Zm-2.83-6.71c.92-.16,1.85-.31,1.48-.14,0,0,.65.47.53.5.62.48-.48,1-1.28,1.36,0-.17.39-.28.29-.53l-.37-.47c-.17-.21-.42.19-.54-.07Zm63.06-10.38c-.15-.35-.36-.81-.57-1.24a3.34,3.34,0,0,1,3,.11c.41.31.22.72-.34.36l-.23-.15c-.27.29-.5.17-.88.38V73Zm15.12,82.7-4.45-2.11,2.79,6.3a4.4,4.4,0,0,1-3-2.39l-.06-.12a2.94,2.94,0,0,1-.5-1l-.64-.23a4.54,4.54,0,0,0,.68,2.14c.66.93-.3,1.17-.38,1.34-.19.39-1.11-.35-1.27-.58s-1.09-.18-1.1-.17c-.29.4-.26,0-.64-.12a2.6,2.6,0,0,1-.73-.49,16.43,16.43,0,0,1-3.11-2.46c-.11-.16-1.45-.28-1.46.12,0,.18-.46.32-.53.32-.37,0-.07.88-.5.85s-.17.26-.41.58c-.6.78-.06,1.1-.08,1.33-.09,1.09.2.73-.56,1.44h0c-.25.2-.24.16-.25.47s0,.49.28.57.46,1.23.65,1.55c.08.14.15.69.36.49s.29-.16.32-.2a6.53,6.53,0,0,1,1.09-.12c.6,0,.42.07.85.2s1.16.51,1,1.1a4.26,4.26,0,0,0-.13.62c0,.1,0,.11.14.14s0,1,0,1.07c-.46.76-.24.95-.4,1.57s.14.55-.31.52a1.62,1.62,0,0,1-.44,0,2.9,2.9,0,0,0-.77.14s-1.58.46-1.68.51c-.41.21-.35-.05-.36.36,0,.09.07.44,0,.47s0-.14-.09-.14c-.5,0-2.55-1-3.45-1a1.84,1.84,0,0,0-.87.09c-1.36.32-1.75,1.35-2.23,1.52-.15,0,.8.5.83.52.34.29.9.25,1.22.47A19.77,19.77,0,0,1,99.89,173c.88.81,1.18,1.44,2.39,1.94.72.29,1.64,1.29,2.37,1.56.17.2,1.15.66,1.23.76a10.68,10.68,0,0,0,2,1l2.4.74a17.3,17.3,0,0,0,4.19.24c.51,0,.83.12,1.16-.15.55-.45.76-.31,1.18-.59s2.66-1.06,2.74-1.13.59-.39.59-.39c.52-.1.28-.82.46-1.2a12.52,12.52,0,0,1,.7-1.69,6.7,6.7,0,0,0,.56-1.14c.25-.51.09-.34.19-.64a7,7,0,0,0,.24-1.28,8.5,8.5,0,0,1,.34-2.56c.34-.2.19-.61.19-.64a2.05,2.05,0,0,0-.7-1.32c0-.25-.68-.6-.68-1.06,0-.77-.22-.63-.25-.77-.26-1,.38-1.5,1.12-1.05a2.72,2.72,0,0,1,.69.85l.07-.08c1.31-.05,2.84,1.36,4.06,1.64a1,1,0,0,0,.53-1.3c-.07,0-3.81-4.17-3.88-4.19-.59-.62-3-3.7-5.88-5.11ZM75.06,71c0,.3.44-2.34.58-2.59a11.52,11.52,0,0,0,.65-2.22c.57-1.17.36-.67.44-1.93.06,0,.2-.12.28-.15a11.14,11.14,0,0,0,2.2-1.38,53.14,53.14,0,0,0,5.56-3c.75-.68,2.19-1.18,3-1.94,1.08-1.08,1.13-.22.79-.13-.58.15.24.85.36.85a.82.82,0,0,1,.76.31A2.42,2.42,0,0,0,90.24,60c.24.26.64.15,1.1.13s.76,1.24.89,1.37a10.76,10.76,0,0,1,.77,1c.47.59.07.41.65,1.12.14.59,1.88,3.08,1.93,3.31a26.22,26.22,0,0,0,2,3.39c0,.31.58,1.21.55,1.29a5.28,5.28,0,0,1,.76,1.4,5.12,5.12,0,0,1,.31.62,3.17,3.17,0,0,1,.45.83c-.14.34-.31.44-.43.8l.27.45-.58.58-.5-.3a2.16,2.16,0,0,0-.77.67l.23.62a1.7,1.7,0,0,1-.57.56l-.54-.18c-.55.48-.37,1-.32,1.67-.51.35-.6.14-.92.26s-.39.44-.56.63l.45.73-.46.68a1.94,1.94,0,0,0-.68,0,2.11,2.11,0,0,0-.34.8c.75.81.22.93-.58,1.32l-.09.28c-.29.89.5.26.12,1.62a1.22,1.22,0,0,0-.75.28l-.09.59c.84,1.08.47.13.49,1.22-.31.1-1,.19-.9.93.05.44.4.43.61.61v.62l-.25.1A4.37,4.37,0,0,1,93,93.17v.08a4.28,4.28,0,0,1,.43.75A4.38,4.38,0,0,1,94,95.44a4.21,4.21,0,0,1,.12,1l.11.22a4.46,4.46,0,0,1,.54,1.12,4.48,4.48,0,0,1,.77,1.89,4,4,0,0,1,.2.58,4.33,4.33,0,0,1,.26,1,3.9,3.9,0,0,1,.2.47,4.44,4.44,0,0,1,.22.61,5.73,5.73,0,0,1,.39.83c0,.09.09.18.13.26a4.47,4.47,0,0,1,.49,2c.2.09.41,0,.82-.09l.46.68-.21.57c.26.42.43.69.92.54a1.64,1.64,0,0,1,.38-.1l.45.43c-.06,1,.14,1.35,1.27.73l.63.71-.32.43a2.45,2.45,0,0,0,.91.53l.47-.3.7.26c1.12,3.33,18.4,3.21,18.4.49l.69-.3.62.4.65-.45c0-.47.09-.68.67-1a1.47,1.47,0,0,0,.59.35l.76-.46c0-.75-.34-.63.49-1.23.19.13.31.15.49.28a4.06,4.06,0,0,0,.46-.36c.47-.47-.41-.63.74-1.37l.39.34a1.79,1.79,0,0,0,.58-.55c.2-.4-.31-1,.28-1.26.31-.15.44,0,.65.16l.73-.86-.39-.52.48-.75.62.09.53-.53c-.31-.72-.47-.58-.08-1.27,1.17-.47.6-.47,1.31-1.16-1.11-1.16.43-.68.84-2.06-.31-.41-.45-.39-.58-.94.54-.1,1,0,.88-1.17-.69-.55-.44-.17-.5-1l.78-.18c0-.37.14-.58.13-.94-.38-.41-.57-.41-.58-1l.78-.37c0-1.32-.56-.68-.72-1.81,1.07-.93.73-.77-.24-2.33l.63-.38-.23-.86a3.92,3.92,0,0,0-.66-.15l-.23-.78c.63-.39.68-.43.31-1.08-.19-.17-.33-.15-.56-.22l-.27-.7s.06-.07.05-.07l.39-.45-.31-.82c-.78,0-.69,0-1.1-.62l.45-.59-.54-.88-.6.07c-.61-1.13.19-.83-.43-1.94l-.72.15-.52-.62.41-.62c-1.13-1.2-1.15.1-1.81-1L129,76c-.74-.82-.56-.84-1.47-.52l-.57-.55a1.91,1.91,0,0,0,.1-.53c-.75-.88-.65-.37-1.23-.19-.18,0-.44-.31-.54-.43a.89.89,0,0,1,0-.67,2.87,2.87,0,0,0-.69-.51L124,73l-1.43-1.5-.57.42c-.24-.16-.37-.16-.6-.33-.07-.69-.4-.67-.83-.9-.68.45-.6.71-1.27.33l-.08-.68-1-.19c-.61.72-.31.48-1,.52L117,69.9a2.82,2.82,0,0,0-1-.06l-.28.47a3.13,3.13,0,0,1-.81-.14l-.33-.66c-1,.32-.53.07-1.08.77h-.79l-.36-.59-1,.24v.49l-.87.08-.37-.59c-1.25.12-.78,1-1.66,1-.11,0,0,0-.18-.06-.66-.39-.28-.43-1.16-.15a.79.79,0,0,1-.3.77c-1.56-1-3.16-.78-4.83-.44a3.18,3.18,0,0,0-.52-.79c-.25-.2-1.22-2.12-1.43-2.33a7.59,7.59,0,0,1-.63-1.06c-.6-.89-.86-1.92-1.64-2.56,0-.09-.81-1.19-.86-1.36-.12-.4-1.43-2.64-1.44-2.65-.09-.37-1-1.38-.72-1.53.66-.28-1.18-1.9-1-2.56,0,0,.08.07.12.07.58,0,.4-.75.27-.77-.49-.09-.12.19-.39-.23A15.36,15.36,0,0,0,93,52.79c-.1-.21-.37-1.47-.38-1.49s-.84-2.59-1-2.94c-.47-1-.82-2.87-1.27-3.55-.27-.39-.25-.78-.34-.84a9.66,9.66,0,0,0-.57-1.5c-.22-.89-1.2-1.44-.59-2.47-.07-.17-.68-1-.84-1-.63,0-.7-.31-1-.4-1.85-.59.06-.74-.93-1.2-1.35-.62-.74.2-1.57-.29,0,0-.09,0-.1-.12-.06-.36-.7-.76-1-1a9.32,9.32,0,0,1-1.57-1.69c-.48-.65-2.09.2-2.13.28-.17.32-1,.37-1.12.51a.58.58,0,0,1-.15.11,3,3,0,0,1-.48.68h-.11a67.76,67.76,0,0,1-8.06-.24s-2.35-1.72-2.9-2.1a8.23,8.23,0,0,0-1-.66c-.36-.32-1.67-.6-2-.93a33.45,33.45,0,0,0-3.23-3.18,23.21,23.21,0,0,0-.38-3.44c-.89-1,.21-1.42.29-1.63.18-.48,1.35.28,1.57.53s1.32.09,1.33.07c.3-.51.32,0,.78.08a3.23,3.23,0,0,1,.92.48,18.64,18.64,0,0,1,4,2.56c.15.18,1.75.16,1.71-.31,0-.22.51-.44.6-.45.43-.07,0-1.06.49-1.07s.17-.32.42-.74c.62-1-.06-1.31-.06-1.59,0-1.31-.32-.85.49-1.77h0c.27-.28.26-.23.23-.59s0-.59-.39-.66-.7-1.39-1-1.75c-.11-.15-.26-.8-.48-.54a1.41,1.41,0,0,1-.37.27c-.14.2-1,.25-1.28.27a1.57,1.57,0,0,1-1-.13C68,18.23,67,18,67.18,17.23a3.64,3.64,0,0,0,.07-.74c0-.12-.07-.13-.17-.15-.29-.06-.1-1.25-.09-1.28.46-1,.17-1.16.29-1.91s-.23-.63.31-.65a1.81,1.81,0,0,1,.52-.07,3.93,3.93,0,0,0,.89-.25s1.83-.74,1.94-.82c.46-.3.43,0,.39-.47,0-.1-.14-.51-.12-.54s0,.16.13.15c.6,0,3.14.85,4.21.77a2,2,0,0,0,1-.22c1.6-.54,1.94-1.8,2.45-2.05.16-.08-1-.5-1-.53-.44-.3-1.1-.18-1.5-.41a22,22,0,0,1-2.87-2C72.47,5.18,72,4.47,70.54,4c-.9-.26-2.1-1.34-3-1.57-.22-.21-1.44-.65-1.55-.76a10.5,10.5,0,0,0-2.46-1L60.59.14c-1.39-.36-3.49.08-5,.21-.6.05-1,0-1.37.32-.59.6-.85.45-1.32.84s-3,1.58-3.12,1.66-.65.54-.66.55c-.6.17-.23,1-.41,1.47a12.84,12.84,0,0,1-.62,2.09,7.81,7.81,0,0,0-.53,1.42c-.23.64-.07.41-.15.78A7.74,7.74,0,0,0,47.28,11c0,.45.17,2.89-.1,3.08s-.15.75-.15.79a2.47,2.47,0,0,0,1,1.48c0,.3.89.63.93,1.18.08.91.4.7.4.88,0,.88,1.26.72,1.69,1,1,.55.51.62.43.91s-1.28,0-1.34.5a6.1,6.1,0,0,1-1.25.41c-.75,1-1,.69-1.64,1.86-.14.24-1,2.8-1.07,2.8C46,27,45.4,27.36,45.4,28.63A36.92,36.92,0,0,1,43.88,34c-.86.79-1.48,3.42-2.08,4.28a19,19,0,0,0-1.13,3c-.13.86-1.55,2.84-1.42,3.46a.88.88,0,0,0-.52,1.14.61.61,0,0,0,.05.12c.39.69-.22.83-.22,1,0,1.2.77,1.21,1,1.49.53.77-.54.81-.61.93-.24.43.76.81.54,1.29-.51,1.09-.62.21-.52,2v.91c-.2.69-.36,1.27.08,1.58l.4.25c-2-.14-4-.23-5.93-.23a3,3,0,0,1-1.07-.2L32,54.9a3.05,3.05,0,0,1-1.11-.34h0a39.26,39.26,0,0,0-4.6-.38c-.69,0-1.61-.18-1.9-.16a17,17,0,0,1-3.75-.48c-1-.26-1,.53-1.92.14-.71-.31-2.47-.5-2.7-.62-1-.56-1.82-.36-2.38-.64a13.75,13.75,0,0,0-1.51-.57c-.06.34,1.85,1,2,1.1a25.09,25.09,0,0,1,2.37,1c.06,0,4.17,1.49,4.28,1.5.76,0,1.83.78,2.24.79.85,0,2.08.85,3,.85l.72.36a33.18,33.18,0,0,1,3.52,2.12c.43.35,1.22,0,1.6.27a12.17,12.17,0,0,0,1.67.57c.51.39,4,1.09,4.47,1.56.74.7,3.13-.12,3.53.35a12.08,12.08,0,0,0,1.6,1.34A6,6,0,0,1,44.41,65c.06.08,2.14,1.37,2.48,1.64a13.59,13.59,0,0,1,2,1.45c.19.21,1.3.82,1.52,1,.52.42-.27.55-.49.72-.11,0-.37.26-.42.36-.27.6-.86-.54-1.48,0C47,71,46.91,69.92,46.48,70c-1.24.07.07-.76-.16-1.29-.29-.69-.77,1-.77,1,.06.92-.29.29-.51.74-.16.06-1,.66-.95.78.06.74-1.56,1.61-1.6,2s-1.16,0-.93,1.35a3.94,3.94,0,0,1,.45.36c-.1,1,.69.52.79.71.4.73,1.1-.27,1.1-.35,0-.26,1.55-2,1.72-1.84s.62-.31.69-.54c.18-.6.77.25.95.38s-.26.43-.31.39c-.29-.24-.65-.09-.62,0,.2.45-.17-.15-.49.72,0,.07-.07.07-.09.12-.07.24-.62.1-.6.5s-.6,0-.58.79c0,.57-.82,0-.76.64.07.86-.72.39-.74.74,0,.64-.14.26-.61.62-.29.23.08.51-.15.52-1,.09-.29,1-.85,1s-.39.61-.38.61c.53.24.67.72.11.93s.36.11-.13.56c-.32.3-.48.77-.05,1.08-.48.06-.86.13-1.22.18a3.43,3.43,0,0,1-.09-.44c0-.12-.1-.24-.14-.36a2.61,2.61,0,0,0-.46-.42l-.51.16L38.21,81l.26-.59-.65-.67c-.73.21-.64.4-1.16-.39a1.3,1.3,0,0,0,.2-.63c-.71-.37-1.33-.36-1.86-1l.24-.45-.75-.61-.57.43-.57-.54c.14-.42.24-.54-.24-.87s-.51-.17-1.1.14c-1-.77.15-1-1.37-1.59l-.65.42-.51-.25c-.28-1.44-.86-.58-2.07-.49L27,72.79h-.62l-.4.46-.82-.13-.34-.67h-.68l-.37.51L23,72.82l-.45-.63c-.85-.14-.77.36-1.37.75-.72-.22-.29-.08-.74-.71l-1,.12c-.89,1.69-.76-.27-2.32.49L17,73.4a1,1,0,0,1-.85-.09c-.25-.18-.1-.23-.34-.23-.88,0-1.05,2-1.9.66l-1,.43v.55l-.64.36c-.29-.13-.61-.43-1-.25s-.24.59-.27,1l-.62.38-.64-.32-.8.48.17.62-.58.46L8,77.25c-.81.42-.78.51-.55,1.23L6.93,79c-.35-.2-.67-.55-1,.25-.23.52.19.59-.29,1.21a5.75,5.75,0,0,1-.83,0l-.5.78c.41.62.49.52,0,1.08-.55.09-.49-.09-1.12.31-.19.59,0,.49.29,1-.39.48-.15.35-.76.62a1.2,1.2,0,0,0-.6.82l.46.61-.31.53c-.7.17-.91.25-1,.93.27.31.31.2.6.46l-.32.68c-.35,0-.23,0-.65.17a1.71,1.71,0,0,0-.13,1c.22.2.25.17.41.33a4,4,0,0,0,0,.69l-.8.26v.89A2.24,2.24,0,0,0,.88,92l-.07.65L0,92.94l.16,1,.54.22.08.67-.66.37a2.32,2.32,0,0,0,.2,1l.53.12.15.85c-.75.44-.82.44-.3,1.28l.59.15a1.69,1.69,0,0,1,.07.74c-.67.43-.49.47-.12,1.2.4.11.66.22.75.69s-.78.19,0,1.52h.68l.32.58-.5.58.47.79.67-.08.41.65-.36.5.53.81h.72c.4.59.26.71.15,1.16.12.16.22.27.35.42s.16.26.46.2c.49-.11.56-.06.91.45l-.38.48.78.76.67-.27.51.43c0,1-.29.33.5,1.27l.65-.44.72.57c-.27.73-.38.49.63,1.08l.53-.4.62.37v.65c.77.51,1.16.09,1.93.21l.11.78,1,.21a2,2,0,0,0,.37-.49,2.21,2.21,0,0,1,.65.16l.19.8a2.28,2.28,0,0,0,.69.13c.43,0,.34-.25.66-.51h.49l.35,1c.69,0,1,.15,1.2-.59a3.83,3.83,0,0,1,.83,0,3,3,0,0,0,.36.82c.45,0,.71,0,1-.43a.63.63,0,0,1,.88-.3c.2.4.29.71.78.61a2.75,2.75,0,0,0,.49-.14l.15-.62c.93-.21.75.15,1.36.55.8-.24.61-.48.86-1,.51,0,.38-.17.92.11a1,1,0,0,0,1.11,0c.05-.38.22-.56.65-.84a3.25,3.25,0,0,0,.42.31,3.89,3.89,0,0,1,.74-.88l.39-.4a4.29,4.29,0,0,1,1-.75,4,4,0,0,1,.71-.44,5.36,5.36,0,0,1,1.2-.75,4.33,4.33,0,0,1,1-.81,6.31,6.31,0,0,1,1-.6,4.31,4.31,0,0,1,2.11-1,1.41,1.41,0,0,1,0-.29.77.77,0,0,1,.55-.7c.22.06.21.11.47.17.57-.45.65-.69.28-1.36l.44-.62h.68l.44-.73-.44-.53.39-.68.7-.07.41-.64-.49-.56c.06-.72.59-.74.95-.84l.21-.64c-.45-1-.55-1,.46-1.47a2.31,2.31,0,0,1,.21-.82c-.21-.37-.61-.53-.6-.93.34-.32.52-.25.9-.45v-.94l-.58-.41v-.59l.68-.24v-1l-.64-.38.56-.3c-.19-.36-.07-.77-.12-1.18-.21-.43-.53.25-.52-.25.64-.7,2.32-2.73,3.45-2.12.82.45,1.13.29,1.88,1,1,.48,1.7,1.35,2.76,1.75A13.39,13.39,0,0,1,53.56,94a12.18,12.18,0,0,0,3.4.36c.49-.26,2.32-.25,2.58-.76.54-1.06-.1-1.55.66-2,.11,0,.34-.38.39-.46a19,19,0,0,1,2.29-3,40.2,40.2,0,0,0,2.81-3.81c.49-.67,1.1-1.73,1.57-2.29.09.22.61-.61.61-.61.15-.64,1.67-1.77,1.76-2.34a5.23,5.23,0,0,1,.75-1c.32-.41.62-.83.9-1.27.55-.35,1.39-2.17,1.83-2.58a12.09,12.09,0,0,0,1-1.31A5.23,5.23,0,0,0,75.06,71ZM14,96.17c.7,1.06,0,.88-1.92,2.53-.88.76-1.94,1.63-2.86,2.33-.26-.31-1.06-1.45-1-1.86s3-1.6,3.78-2.11A5.24,5.24,0,0,1,14,96.17Z"/><path class="cls-1" d="M90.4,93.31c.24-.61.81-.75,1.5-1,.28.49.13.67.35,1.08.08.07,1.11.09.09,1.3a2.41,2.41,0,0,1-1.94-1.41m-3.47,9.56v-.39c1.53-1.18,3.38-1,4.45-1.33a3.82,3.82,0,0,1,1.51-.44,11.51,11.51,0,0,1,.06,1.18,12.93,12.93,0,0,1-3,.69c-.49.08-1,.13-1.49.25-.88.2-.94.48-1.53.07Zm.41-8.24c.1,1.4-2.74,2.4-3.28,2.4s-.06.08-.3-.11c.32-.3.5-.27.85-.48a10.53,10.53,0,0,1,2.73-1.78Zm-.7,14.4c-.57-.34-2.15-.81-2.14-1.42,0-.07.5-1.08,1-.68.19.15.23.35.73.27.18-.34,0-.71.21-1.11l.43,1.32a4.07,4.07,0,0,1,1.41-.4l.12-.72-.9-.69c0-.53.21-1.07.17-1.52l5-1c.2.61-.13,1-.24,1.49A6.37,6.37,0,0,1,92,106a24.59,24.59,0,0,1-1,2.87c-.69-.08-1.36-.35-2.1-.51A2.22,2.22,0,0,0,86.64,109ZM71.3,96a6,6,0,0,1,.47-1.24l2.88,1a6.2,6.2,0,0,1,.94.34,1.49,1.49,0,0,1-.2.71H73.3a2.9,2.9,0,0,1-2-.75Zm-3.51-.27c.34-.66.46-.76,1.36-.94a2.53,2.53,0,0,1,1.63.06,3.11,3.11,0,0,1-.19,1,10.11,10.11,0,0,1-2.8-.06Zm-4.55,1A15.65,15.65,0,0,0,61,99.67l-.68.94c-.61-.92.62-2.63,1.21-3.51a3.74,3.74,0,0,1,3.66-2,1.09,1.09,0,0,1-.44,1.33c-.62.57-.85.31-1.51.33Zm5.47,14.89-.24.32c-.11.09-.23.16-.33.25-.66.58-.65,1.12-1.55,1.73-.46-1,.62-2,2.12-2.27Zm-7-2.06.46,2c1.33-.34.75-1,2.1-.42l.41,1.13a9.94,9.94,0,0,1-3.08.13c-1-.18-.33-2.4.14-2.81Zm-1.09-.51a1.58,1.58,0,0,1-.23,1.44,1.11,1.11,0,0,1,.26-1.41Zm-5.54-3.85c.93.19.33.53.42,1.18a2.26,2.26,0,0,1-.36,1.9c-.28.42-.64.33-1,.3-.35-.75-.09-2.84,1-3.35ZM32.69,113c2.06-.81,3.91,3.4,5.19,5.17.79,1.1-2-3.12-1.21-2A39.77,39.77,0,0,1,39,119.6a3.41,3.41,0,0,1-1.07.85c-1.58-2,.65,1.17-.83-.93C36.25,118.31,33.29,114,32.69,113Zm57.72,12.6c2.67.67,0-1.06,1.37-1.35.71-.16.76.41,1.19.74s.44.64.93.57,1.16-1.7,2.4-.69c.31.25.84-.23,1.66.45a1,1,0,0,0,.9.33c.3,0,.51.56.7.66s.91.13,1.15.27c.42.26-.62,1.43,1,1.64,5.4,1.52.31-3.26-4.62-4.18-1.33-.25-7.5,0-8.42,1.16a8.68,8.68,0,0,0,1.74.38ZM39,106.37c.2.47.08.7-.41,1.09-.26-.06-.25-.11-.47-.17a.77.77,0,0,0-.55.7c0,.48.11.37-.09.79a2.19,2.19,0,0,0,.59.73c.84.59.6-.56,1.66,1.73a17,17,0,0,0,2,3.29c.74,1,1.43,1.89,2.13,3A31.72,31.72,0,0,0,46,120.42a7.56,7.56,0,0,0,2.42-3.32,5.82,5.82,0,0,1,.26-.93l1.06-2.72c.1-.33.16-.6.23-.94l.68-2.81a8.35,8.35,0,0,1,1.6-3.58c-1.35-2.86.58-3.58.26-6-.1-.74-.43-1-.3-1.62.24-1.22,1.31-3,2.7-3.23.94-.15,1,1.25,2.44,1.39,1.63.16,2-2,4.61-3,2.13-.78,5.36-.72,7.54-.8a22.78,22.78,0,0,1,3.6.14l6,.38a6,6,0,0,1,1.22.08,4.64,4.64,0,0,1,1,.49c.44.18,1.66.69,2.32.17s.52-1.58.79-2.19c.44-1,1.66-.58,2.26-.5,1.4.17,1.62-1.17,2.45-1,.22.06.77.41,1.08.54.52.21.53.46.94.86.88-.52,1.08-.66.76-1.59l.8-.34v-.62c-.21-.18-.56-.17-.61-.61-.07-.59.34-.77.67-.86l.13.1.25.23.29.3c1.69,4,4.28,10.2,4.28,14a4.48,4.48,0,0,0,.15,1.15,7.71,7.71,0,0,0,.08,1.52v.34c-.52.13-.66.14-1.08-.54.22-.55.29-.39-.07-1.13-.83.1-.66.14-1.27-.54a3.52,3.52,0,0,0,.34-.67c-.41-.27-.57-.09-1.1.24l-.71,3.1-1.29,2.88a4.22,4.22,0,0,0-.67,2,9,9,0,0,0,3.59.62c1-.1.38-.57,1.88,0s3.71.49,5.25,1.08a5.93,5.93,0,0,1,1.63.91c.51.37,1,.74,1.51,1.13a47.47,47.47,0,0,0,3.82,3.25c.27.14.54.3.8.47.35.35,2.12,3.7,2.51,4.38a32,32,0,0,1,1.22,3.12,9.9,9.9,0,0,0,.31,1c.2,1-.1,1.09,0,1.83a10.17,10.17,0,0,0,2.54.69c2.94.82,5.87,1.61,8.85,2.28l2.58.5c.43.06.84.18,1.28.26.9.18,1.7.16,2.61.38.6.15,1.86.28,2.28,1.23-.17.7-.73.82-1.47.94a19,19,0,0,1-5-.11c-3-.32-6.07-.31-9.1-.61l-4.11-.24c-.57,0-1.1-.07-1.68-.11-1.55-.1-5.07-.72-7.42-.35.41.51,2.91.85,3.27,1.48.77,1.31,1.94,1,2.71,1.67.3.24.48.61.83.84s.23.08.49.16a8.6,8.6,0,0,1,.9.58c.43.23.82.91,1.28,1a39.75,39.75,0,0,0,3.51,4.56c.33.33.31.15.61.58s.32.36.55.71a3.07,3.07,0,0,0,1.28,1c.44.29.37.14.69.29a2.79,2.79,0,0,0,1.08.38c.47.09.48.23,1.09.14l7.55.4a16.08,16.08,0,0,1,5.66,1.67l2.66,1.45c.86.47,1.75,1.07,2.62,1.62a56.85,56.85,0,0,1,12.47,10.3c2.16,2.39,2.55,3.37,3.73,6.38.89,2.28,1.66,4.53,2.45,6.83a62.47,62.47,0,0,0,2.88,6.93c.38.79,0,.74.61,1.68a18.6,18.6,0,0,0,.8,1.76,9.58,9.58,0,0,1,.77,3.3c0,.52.23,1.29.17,1.58a5.75,5.75,0,0,1-.2.71c-.42,1.12-.09.84-.4,2.19a1.4,1.4,0,0,0,0,.76,1,1,0,0,1-.1.68,8.48,8.48,0,0,1-1,2.79l-1.27,2c-.45.72-.35,1.34-1.07,2-.49.45-.06.71-.68,1.34-.37.37-.22.3-.35.67-.26.76-.62.46-.58,1.37s-.37,3.28.64,3.86a14.31,14.31,0,0,0,1.4.46,4,4,0,0,0,1.45.34c1.46,0,3.65-1.65,4.75-.55a2.78,2.78,0,0,1,1,1.43c-.5.43-.7,1.4-1,2-.11.21-.37.36-.49.57-.3.48,0,.68-.86,1.24l-1.57,1c-.52.34-.46.12-.85.28a8.29,8.29,0,0,1-.84.43,11.68,11.68,0,0,0-1.61.63,5,5,0,0,0-2.1,1.63c-.21.16-.49.34-.73.52l1.93,3.1-1.27,1.37c-.55-.18-1.18,0-1.77-.22a3.93,3.93,0,0,0-.78-.36,8.5,8.5,0,0,1-.87-.07c-.37-.12-.5,0-.86-.09a3.3,3.3,0,0,1-.81-.25c-.88-.57-1.59-.27-2.43-.83s-.61-.16-1.51-.92a2.17,2.17,0,0,0-.74-.49c-.13-.09-.21-.26-.37-.38s-.23-.09-.35-.2c-.29-.25-.32-.52-.68-.76s-.42-.41-.72-.62a6.48,6.48,0,0,1-.73-.53c-1.42-1.3-.9-1.14-1.06-1.63-.35-1.08-.42-.84-.39-1.88a6.45,6.45,0,0,1,.3-1.69c.21-.35.29-.28.5-.75s.29-.35.69-.69l1.24-1.43c1.14-1.1,1-1.8,1.08-3.22,0-.33.2-.5.24-.82.09-.72-.08-1.95-.05-2.73,0-1.19.08-.76.38-1.66.08-.24,0-1.13.07-1.75a18.73,18.73,0,0,0-.16-2.7c.08-.76.41-.91.21-1.71v-1.35a1.73,1.73,0,0,1,.16-.37,5.9,5.9,0,0,0,0-1.78,8.73,8.73,0,0,1,0-1.77,3.39,3.39,0,0,1,.17-.84c.15-.85.28-.78-.37-1.77a1.49,1.49,0,0,1-.38-1c-.31-2-1.43-2.45-1.76-3.91a2.68,2.68,0,0,0-.46-1c-.54-1-.09-.73-1.09-1.63-.43-.4-.36-.93-1.31-1.67-.7-.54-.49-1.07-1.43-1.11-.67-1.1-.94-.51-2.38-2.15-2.64-3-2.75-8-4.16-9.4-1-1-3.14-.82-4.48-1a2,2,0,0,0-.34-.05l-2.12-.22a23.12,23.12,0,0,0-4.24-.27c.51,1,1,1.72,0,2.41-1-.23-2.24-1.25-3.39-1.56a5.21,5.21,0,0,0-1.37-1.15c-1.89-1.58-7.51-3.34-8.33-4.17a6,6,0,0,0-.88-1.64c.85.74.78-.59.69-1.1-.14-1-.2-1.65-.24-2a15.34,15.34,0,0,1-.48-1.61c.25-2-3.1-4.47-4.73-5.24-.34-.16-1.56-1.5-1.88-1.55-.57-.1-.86-1.79-1.39-2.07a6.62,6.62,0,0,1-1.18-.69c-.25-.21-.32-.42-.65-.63-.56-.34-2.74-3.32-3.14-3.46-.17-.06-.8-1.1-1.41-1.47a6.2,6.2,0,0,1-1-.58,11.69,11.69,0,0,1-.87-1.33c-.76-1.08.9-.35-.51-.71-.45-.72-.14-.89-.81-1.34a3,3,0,0,1-.64-1.09c0-.31,0-.61-.1-.61,0-.22-4-.77-5.8-1.05-1-.14-1.83-.21-2.75-.41s-1.82-.32-2.67-.56c-.25-.07-.39-.15-.66-.21a26.53,26.53,0,0,0-3.27-.94c-.81-.07-7.18,3.37-8.16,3.88-2.08,1.07-4.39,2.37-6.09,1.59-.54.55-.89,1.68-1.66,2.5-.54.56-1.5,2.1-2.1,2.28-.69-.81-.22-.88-.23-1.52a7.56,7.56,0,0,0-2.89-1.51c-1.36-.17-.92,2-2.92,1.2l-.31.2a17.73,17.73,0,0,0,3.14,4.67,7.25,7.25,0,0,0,4.07,2c1-.67,1.26-2.33,2.56-2.28.65,0,.7.37,1.58,0A7.8,7.8,0,0,0,68.26,141a5.06,5.06,0,0,1,1.75.43l.2,1.66c-.71.32-1.59.59-2.34.87-1.35.48-.84.36-1.35,1.35s-.85,1-1.87,1.55A9.81,9.81,0,0,1,62.33,148c-1.35.32-2.58-.4-3.69-1.35-1.67-1.41-2.37-1-4.1.06a17.47,17.47,0,0,0-.33,3.54c.22,2.72.15,1.63,1.49,4a9,9,0,0,0-.84,2,3.09,3.09,0,0,1-1,2,16.23,16.23,0,0,0-1.43-.89c0-1.55.75-4.2.62-6.94-.28-5.7-2.54-3.84-4.78-3.33-.26-1.42,1-1.75-1.65-7a56,56,0,0,0-4.48-7.38h-.55c-3.15.33-4.53-.08-7.08,0A20.56,20.56,0,0,1,29,132c-.9-.19-1.74-.53-2.62-.77a42.28,42.28,0,0,1-5.11-2l-2.5-1.18c-.34-.15-.54-.31-.82-.45-1.28-.64-3.09-1.4-4-2.7,1.34-.48,5.61.2,6.68.47,2.62.67,2.74,1,5.58,1.39,3.67.47,4,3.33,10.56,1.65a23.45,23.45,0,0,0,3.83-1.88c-1.19-2.75-5.36-7.88-7.33-11a9,9,0,0,0-2-2.46c-.31-.23-.5-.11-.86.07l-.06.72c-.78.42-.88.38-1.46-.1-.43.28-.6.46-.65.84a1,1,0,0,1-1.11,0c-.54-.28-.41-.1-.92-.11-.25.47-.06.71-.86,1-.61-.4-.43-.76-1.36-.55l-.15.62a2.75,2.75,0,0,1-.49.14c-.49.1-.58-.21-.78-.61-.38-.11-.62-.12-.88.3s-.51.39-1,.43a1.66,1.66,0,0,1-.27-.59,4.24,4.24,0,0,0,1.63-1.37l.31-.31a5.51,5.51,0,0,0,1.15-1l.33-.26c5.11-2.53,8.28-2.78,13-5.18l.46-.19h.21a4.31,4.31,0,0,0,1.17-.26Z"/><path class="cls-1" d="M19.85,108.08c.31-.27.3-.22.36-.55l.34-1.69c-.36.74-.9,1.43-.7,2.24"/><path class="cls-2" d="M104,109.64l-.39,1,.92.68.63-.6.88.31-.14.35s.17.75.37.75h.54l.35-.68.69.11.24.25-.11.59.6.08s.38.14.45-.17.19-.35.19-.35H110l.31.74.37.16.48-.16.09-.61.82-.1.2.78.78.18.5-1.09.71.92h.57L115,112l.51-.25.48,1h.77l.06-1,.88-.07.39,1,.78-.13.18-.8.52-.37.61.82.68-.18-.11-1.2,1.22.54.71-.4-.39-.84-5.24-.28Z"/></g></g><text class="cls-3" transform="translate(200 102.09)">FREE <tspan class="cls-4" x="123.7" y="0">m</tspan><tspan x="166.87" y="0">o</tspan><tspan class="cls-5" x="194.17" y="0">t</tspan><tspan x="211.84" y="0">o </tspan><tspan class="cls-6" x="251.08" y="0">S</tspan><tspan class="cls-7" x="277.2" y="0">T</tspan><tspan class="cls-8" x="302.54" y="0">Y</tspan><tspan x="330.83" y="0">LE </tspan><tspan class="cls-4" x="395.32" y="0">a</tspan><tspan x="421.39" y="0">c</tspan><tspan class="cls-4" x="446.12" y="0">a</tspan><tspan x="472.19" y="0">de</tspan><tspan class="cls-9" x="527.13" y="0">m</tspan><tspan x="569.57" y="0">y</tspan></text></svg>